<svg version="1" xmlns="http://www.w3.org/2000/svg" width="346.667" height="346.667" viewBox="0 0 260.000000 260.000000"><path d="M0 130v130h260V0H0v130zm158-43.5c0 14.6.2 26.5.4 26.5s5.7-.9 12.2-2.1c14.8-2.6 20.9-2.2 24.1 1.5l2.3 2.7V199h-20V125.7l-6.1.7c-3.4.3-7.7.6-9.5.6H158v72h-21V60h21v26.5zM116.4 110c4.8 1.8 6 5.2 6.4 18.6l.4 12.4H102v-15H84v56h18v-17h21.2l-.4 13.3c-.4 14.5-1.5 17.9-6.4 19.7-1.4.6-12 1-23.5 1-23.4 0-25.8-.5-27.8-6.1-1.5-4.4-1.5-73.4 0-77.8 1.9-5.5 4.1-6 27.6-6.1 11.6 0 22.3.4 23.7 1z"/></svg>